<svg width="49" height="49" viewBox="0 0 49 49" fill="none" xmlns="http://www.w3.org/2000/svg">
<path d="M18.498 46.5923C18.498 46.5923 10.2719 41.8286 10.2719 25.1673C10.2719 8.50598 18.498 1.8833 18.498 1.8833" stroke="#FFFF2E" stroke-width="2" stroke-miterlimit="10"/>
<path d="M29.9541 46.5923C29.9541 46.5923 38.1802 41.8286 38.1802 25.1673C38.1802 8.50598 29.9541 1.8833 29.9541 1.8833" stroke="#FFFF2E" stroke-width="2" stroke-miterlimit="10"/>
<path d="M47.4751 24.2375C47.4751 37.0647 37.0647 47.4751 24.2375 47.4751C11.4104 47.4751 1 37.0647 1 24.2375C1 11.4104 11.4104 1 24.2375 1C37.0647 1 47.4751 11.4104 47.4751 24.2375Z" stroke="#FFFF2E" stroke-width="2" stroke-miterlimit="10"/>
<path d="M24.2375 1V47.4751" stroke="#FFFF2E" stroke-width="2" stroke-miterlimit="10"/>
<path d="M47.4751 24.2375H1" stroke="#FFFF2E" stroke-width="2" stroke-miterlimit="10"/>
<path d="M41.968 9.24951C41.968 9.24951 36.5536 14.0132 24.2377 14.0132C11.9218 14.0132 6.50745 9.24951 6.50745 9.24951" stroke="#FFFF2E" stroke-width="2" stroke-miterlimit="10"/>
<path d="M41.968 39.2491C41.968 39.2491 36.5536 34.4854 24.2377 34.4854C11.9218 34.4854 6.50745 39.2491 6.50745 39.2491" stroke="#FFFF2E" stroke-width="2" stroke-miterlimit="10"/>
</svg>
